<svg width="32" height="32" viewBox="0 0 32 32" fill="none" xmlns="http://www.w3.org/2000/svg">
<path fill-rule="evenodd" clip-rule="evenodd" d="M24.6664 5.47019C24.6664 7.01903 23.3872 8.27461 21.8093 8.27461C20.2313 8.27461 18.9521 7.01903 18.9521 5.47019C18.9521 3.92135 20.2313 2.66577 21.8093 2.66577C23.3872 2.66577 24.6664 3.92135 24.6664 5.47019ZM30.1905 24C30.1905 25.8409 28.67 27.3333 26.7945 27.3333C24.9189 27.3333 23.3985 25.8409 23.3985 24C23.3985 22.159 24.9189 20.6667 26.7945 20.6667C28.67 20.6667 30.1905 22.159 30.1905 24ZM12.7898 6.47096C12.4114 6.3281 11.9902 6.35236 11.6307 6.53771L6.96399 8.9436C6.26272 9.30514 5.98731 10.1667 6.34885 10.868C6.71038 11.5693 7.57196 11.8447 8.27323 11.4831L12.3752 9.36839L15.6205 10.5936L10.198 17.6901C9.93836 18.03 9.84462 18.4683 9.94256 18.8846C10.0405 19.3009 10.3198 19.6515 10.7038 19.8399L15.8674 22.3741L12.5467 27.0821C12.092 27.7269 12.246 28.6182 12.8907 29.0729C13.5355 29.5277 14.4268 29.3737 14.8815 28.7289L19.1673 22.6527C19.4083 22.311 19.4875 21.8808 19.384 21.4757C19.2805 21.0705 19.0046 20.7311 18.6293 20.5468L13.5251 18.0418L18.1265 12.0199L20.6825 15.2984C20.9573 15.6508 21.3811 15.8543 21.8279 15.8484L27.066 15.7796C27.8549 15.7692 28.4861 15.1212 28.4757 14.3323C28.4653 13.5434 27.8174 12.9123 27.0285 12.9227L22.4996 12.9822L19.6024 9.26612C19.4411 9.05917 19.2258 8.90066 18.9803 8.80798L12.7898 6.47096ZM4.34549 28.8081L10.0598 21.797L7.84508 19.9919L2.13077 27.003C1.63231 27.6145 1.72401 28.5144 2.33559 29.0129C2.94716 29.5113 3.84703 29.4196 4.34549 28.8081Z" fill="url(#paint0_linear_96_811)"/>
<defs>
<linearGradient id="paint0_linear_96_811" x1="16" y1="2.66577" x2="16" y2="29.3342" gradientUnits="userSpaceOnUse">
<stop offset="0.179999" stop-color="white"/>
<stop offset="1" stop-color="white" stop-opacity="0.4"/>
</linearGradient>
</defs>
</svg>
