<svg width="32" height="32" viewBox="0 0 32 32" fill="none" xmlns="http://www.w3.org/2000/svg">
<path fill-rule="evenodd" clip-rule="evenodd" d="M18.948 5.1262C18.948 6.71863 17.6328 8.00955 16.0104 8.00955C14.388 8.00955 13.0728 6.71863 13.0728 5.1262C13.0728 3.53378 14.388 2.24286 16.0104 2.24286C17.6328 2.24286 18.948 3.53378 18.948 5.1262ZM25.2493 6.39631C25.2714 5.73421 24.7525 5.17959 24.0905 5.15752C23.4284 5.13545 22.8737 5.65429 22.8517 6.31639L22.5665 14.8697L19.8568 14.0154L16.7146 9.61635C16.3753 9.14137 15.7867 8.91275 15.2158 9.03421C14.6449 9.15567 14.2003 9.60409 14.0837 10.176L12.4111 18.3847C12.3208 18.8278 12.4399 19.2878 12.734 19.6314L14.7955 22.0398L15.4351 28.436C15.5157 29.2421 16.2345 29.8302 17.0406 29.7496C17.8467 29.669 18.4348 28.9502 18.3542 28.1441L17.6687 21.2898C17.6389 20.9916 17.5185 20.7097 17.3236 20.482L15.4287 18.2682L16.2856 14.063L17.7546 16.1195C17.9395 16.3784 18.2037 16.5702 18.5071 16.6659L22.8555 18.0367C23.4125 18.2123 23.996 18.0385 24.3697 17.6383C24.6822 17.4311 24.8932 17.081 24.9066 16.6777L25.2493 6.39631ZM24.7014 21.4598L24.7254 20.2605L22.3268 20.2125L22.3029 21.4118L22.1658 28.2661C22.1526 28.9284 22.6788 29.4761 23.3411 29.4893C24.0034 29.5026 24.5511 28.9764 24.5643 28.3141L24.7014 21.4598ZM11.0304 9.7201C11.8225 9.88984 12.3271 10.6696 12.1573 11.4617L11.1292 16.2597C10.9594 17.0518 10.1797 17.5564 9.38758 17.3866C8.59546 17.2169 8.09092 16.4371 8.26066 15.645L9.28881 10.847C9.45855 10.0549 10.2383 9.55036 11.0304 9.7201ZM12.2324 24.2198L12.9601 22.9463L10.413 21.4908L9.68528 22.7643L6.94352 27.5623C6.54159 28.2657 6.78595 29.1617 7.48931 29.5636C8.19268 29.9655 9.08869 29.7212 9.49062 29.0178L12.2324 24.2198Z" fill="url(#paint0_linear_96_818)"/>
<defs>
<linearGradient id="paint0_linear_96_818" x1="17.2728" y1="2.24286" x2="17.2728" y2="29.7571" gradientUnits="userSpaceOnUse">
<stop offset="0.179999" stop-color="white"/>
<stop offset="1" stop-color="white" stop-opacity="0.4"/>
</linearGradient>
</defs>
</svg>
