<svg width="24" height="24" viewBox="0 0 24 24" fill="none" xmlns="http://www.w3.org/2000/svg">
<path fill-rule="evenodd" clip-rule="evenodd" d="M1.35607 9.1514C1.35607 7.47997 2.71104 6.125 4.38247 6.125H16.0797C17.7511 6.125 19.1061 7.47997 19.1061 9.1514V14.8486C19.1061 16.52 17.7511 17.875 16.0797 17.875H4.38247C2.71104 17.875 1.35607 16.52 1.35607 14.8486V9.1514ZM4.38247 7.875C3.67754 7.875 3.10607 8.44646 3.10607 9.1514V14.8486C3.10607 15.5535 3.67754 16.125 4.38247 16.125H16.0797C16.7846 16.125 17.3561 15.5535 17.3561 14.8486V9.1514C17.3561 8.44646 16.7846 7.875 16.0797 7.875H4.38247ZM20.6506 10.3967C20.6506 10.0997 20.8914 9.85886 21.1884 9.85886H22.1061C22.4031 9.85886 22.6439 10.0997 22.6439 10.3967V13.6096C22.6439 13.9066 22.4031 14.1474 22.1061 14.1474H21.1884C20.8914 14.1474 20.6506 13.9066 20.6506 13.6096V10.3967ZM4.75 9.00331C4.47386 9.00331 4.25 9.22717 4.25 9.50331V14.5033C4.25 14.7795 4.47386 15.0033 4.75 15.0033H12.75C13.0261 15.0033 13.25 14.7795 13.25 14.5033V9.50331C13.25 9.22717 13.0261 9.00331 12.75 9.00331H4.75Z" fill="url(#paint0_linear_96_639)"/>
<defs>
<linearGradient id="paint0_linear_96_639" x1="13.4907" y1="6.17418" x2="13.4907" y2="17.8255" gradientUnits="userSpaceOnUse">
<stop offset="0.179999" stop-color="white"/>
<stop offset="1" stop-color="white" stop-opacity="0.4"/>
</linearGradient>
</defs>
</svg>
