<svg width="32" height="32" viewBox="0 0 32 32" fill="none" xmlns="http://www.w3.org/2000/svg">
<path fill-rule="evenodd" clip-rule="evenodd" d="M1.80809 12.2019C1.80809 9.97328 3.61471 8.16666 5.84329 8.16666H21.4396C23.6681 8.16666 25.4748 9.97328 25.4748 12.2019V19.7981C25.4748 22.0267 23.6681 23.8333 21.4396 23.8333H5.8433C3.61472 23.8333 1.80809 22.0267 1.80809 19.7981V12.2019ZM5.84329 10.5C4.90338 10.5 4.14142 11.2619 4.14142 12.2019V19.7981C4.14142 20.738 4.90338 21.5 5.8433 21.5H21.4396C22.3795 21.5 23.1414 20.738 23.1414 19.7981V12.2019C23.1414 11.262 22.3795 10.5 21.4396 10.5H5.84329ZM27.5341 13.8623C27.5341 13.4662 27.8551 13.1451 28.2512 13.1451H29.4748C29.8708 13.1451 30.1919 13.4662 30.1919 13.8623V18.1461C30.1919 18.5421 29.8708 18.8632 29.4748 18.8632H28.2512C27.8551 18.8632 27.5341 18.5421 27.5341 18.1461V13.8623ZM6.33333 12.0044C5.96514 12.0044 5.66666 12.3029 5.66666 12.6711V19.3377C5.66666 19.7059 5.96514 20.0044 6.33333 20.0044H17C17.3682 20.0044 17.6667 19.7059 17.6667 19.3377V12.6711C17.6667 12.3029 17.3682 12.0044 17 12.0044H6.33333Z" fill="url(#paint0_linear_96_826)"/>
<defs>
<linearGradient id="paint0_linear_96_826" x1="17.9876" y1="8.23223" x2="17.9876" y2="23.7673" gradientUnits="userSpaceOnUse">
<stop offset="0.179999" stop-color="white"/>
<stop offset="1" stop-color="white" stop-opacity="0.4"/>
</linearGradient>
</defs>
</svg>
