<svg width="32" height="32" viewBox="0 0 32 32" fill="none" xmlns="http://www.w3.org/2000/svg">
<path fill-rule="evenodd" clip-rule="evenodd" d="M22.6664 8.27461C24.2444 8.27461 25.5236 7.01903 25.5236 5.47019C25.5236 3.92135 24.2444 2.66577 22.6664 2.66577C21.0885 2.66577 19.8093 3.92135 19.8093 5.47019C19.8093 7.01903 21.0885 8.27461 22.6664 8.27461ZM13.647 6.47096C13.094 6.26218 12.4694 6.41558 12.0761 6.85685L8.74273 10.5961C8.21771 11.185 8.26954 12.0881 8.85848 12.6131C9.44742 13.1381 10.3505 13.0863 10.8755 12.4973L13.5559 9.49053L16.4777 10.5936L11.0552 17.6901C10.7955 18.03 10.7018 18.4683 10.7997 18.8846C10.8977 19.3009 11.177 19.6515 11.5609 19.8399L16.7246 22.3741L13.4039 27.0821C12.9491 27.7269 13.1031 28.6182 13.7479 29.0729C14.3926 29.5277 15.2839 29.3737 15.7387 28.7289L20.0244 22.6527C20.2654 22.311 20.3446 21.8808 20.2411 21.4757C20.1376 21.0705 19.8618 20.7311 19.4864 20.5468L14.3822 18.0418L18.8723 12.1656L21.4382 16.4832C21.7651 17.0331 22.4177 17.2987 23.0357 17.1333L28.2738 15.7311C29.036 15.5271 29.4884 14.7438 29.2844 13.9817C29.0804 13.2196 28.2971 12.7671 27.535 12.9711L23.3418 14.0936L20.561 9.41464C20.3956 9.13626 20.1405 8.92235 19.8375 8.80798L13.647 6.47096ZM5.20265 28.8081L10.917 21.797L8.70224 19.9919L2.98793 27.003C2.48947 27.6145 2.58117 28.5144 3.19274 29.0129C3.80432 29.5113 4.70419 29.4196 5.20265 28.8081Z" fill="url(#paint0_linear_96_805)"/>
<defs>
<linearGradient id="paint0_linear_96_805" x1="16" y1="2.66577" x2="16" y2="29.3342" gradientUnits="userSpaceOnUse">
<stop offset="0.179999" stop-color="white"/>
<stop offset="1" stop-color="white" stop-opacity="0.4"/>
</linearGradient>
</defs>
</svg>
