<svg xmlns="http://www.w3.org/2000/svg" width="24" height="24" fill="none"><path fill="url(#a)" fill-rule="evenodd" d="M17 6.206c1.183 0 2.143-.942 2.143-2.103 0-1.162-.96-2.104-2.143-2.104-1.184 0-2.143.942-2.143 2.104 0 1.161.96 2.103 2.143 2.103Zm-6.765-1.353a1.071 1.071 0 0 0-1.178.29l-2.5 2.804a1.071 1.071 0 1 0 1.6 1.426l2.01-2.255 2.191.827-4.067 5.323a1.071 1.071 0 0 0 .38 1.612l3.872 1.9-2.49 3.532a1.071 1.071 0 0 0 1.751 1.235l3.214-4.558a1.071 1.071 0 0 0-.403-1.579l-3.828-1.879 3.367-4.407 1.925 3.238c.245.413.734.612 1.198.488l3.928-1.052a1.071 1.071 0 1 0-.554-2.07l-3.145.842-2.085-3.509a1.072 1.072 0 0 0-.543-.455l-4.643-1.753ZM3.902 21.606l4.286-5.258-1.661-1.354-4.286 5.258a1.072 1.072 0 0 0 1.661 1.354Z" clip-rule="evenodd"/><defs><linearGradient id="a" x1="12" x2="12" y1="1.999" y2="22.001" gradientUnits="userSpaceOnUse"><stop offset=".18" stop-color="#fff"/><stop offset="1" stop-color="#fff" stop-opacity=".4"/></linearGradient></defs></svg>