<svg width="24" height="24" viewBox="0 0 24 24" fill="none" xmlns="http://www.w3.org/2000/svg">
<path fill-rule="evenodd" clip-rule="evenodd" d="M18.4998 4.10264C18.4998 5.26427 17.5404 6.20596 16.357 6.20596C15.1735 6.20596 14.2141 5.26427 14.2141 4.10264C14.2141 2.94101 15.1735 1.99933 16.357 1.99933C17.5404 1.99933 18.4998 2.94101 18.4998 4.10264ZM22.6429 18C22.6429 19.3807 21.5025 20.5 20.0959 20.5C18.6892 20.5 17.5488 19.3807 17.5488 18C17.5488 16.6193 18.6892 15.5 20.0959 15.5C21.5025 15.5 22.6429 16.6193 22.6429 18ZM9.59238 4.85322C9.30857 4.74608 8.99264 4.76427 8.723 4.90328L5.22299 6.7077C4.69704 6.97885 4.49048 7.62504 4.76163 8.15099C5.03279 8.67694 5.67897 8.8835 6.20492 8.61234L9.28137 7.02629L11.7154 7.94517L7.64853 13.2676C7.45377 13.5225 7.38346 13.8512 7.45692 14.1635C7.53037 14.4757 7.73987 14.7386 8.02783 14.8799L11.9006 16.7806L9.41004 20.3116C9.06898 20.7952 9.18449 21.4636 9.66805 21.8047C10.1516 22.1458 10.8201 22.0303 11.1612 21.5467L14.3755 16.9895C14.5562 16.7332 14.6156 16.4106 14.538 16.1068C14.4604 15.8029 14.2535 15.5483 13.9719 15.4101L10.1438 13.5314L13.5948 9.01489L15.5119 11.4738C15.7179 11.7381 16.0358 11.8907 16.3709 11.8863L20.2995 11.8347C20.8912 11.8269 21.3646 11.3409 21.3568 10.7492C21.349 10.1576 20.863 9.68422 20.2713 9.692L16.8747 9.73666L14.7018 6.94959C14.5808 6.79438 14.4194 6.67549 14.2353 6.60598L9.59238 4.85322ZM3.25912 21.606L7.54485 16.3478L5.88381 14.9939L1.59808 20.2522C1.22423 20.7109 1.29301 21.3858 1.75169 21.7597C2.21037 22.1335 2.88527 22.0647 3.25912 21.606Z" fill="url(#paint0_linear_96_631)"/>
<defs>
<linearGradient id="paint0_linear_96_631" x1="12" y1="1.99933" x2="12" y2="22.0007" gradientUnits="userSpaceOnUse">
<stop offset="0.179999" stop-color="white"/>
<stop offset="1" stop-color="white" stop-opacity="0.4"/>
</linearGradient>
</defs>
</svg>
