<svg width="25" height="25" viewBox="0 0 25 25" fill="none" xmlns="http://www.w3.org/2000/svg">
<path fill-rule="evenodd" clip-rule="evenodd" d="M18.9951 4.13807C18.9951 5.2997 18.0357 6.24138 16.8522 6.24138C15.6687 6.24138 14.7093 5.2997 14.7093 4.13807C14.7093 2.97644 15.6687 2.03476 16.8522 2.03476C18.0357 2.03476 18.9951 2.97644 18.9951 4.13807ZM23.1381 18.0354C23.1381 19.4161 21.9978 20.5354 20.5911 20.5354C19.1844 20.5354 18.0441 19.4161 18.0441 18.0354C18.0441 16.6547 19.1844 15.5354 20.5911 15.5354C21.9978 15.5354 23.1381 16.6547 23.1381 18.0354ZM10.0876 4.88865C9.80379 4.7815 9.48786 4.79969 9.21822 4.93871L5.71821 6.74313C5.19226 7.01428 4.9857 7.66046 5.25686 8.18642C5.52801 8.71237 6.17419 8.91893 6.70015 8.64777L9.7766 7.06172L12.2106 7.9806L8.14375 13.303C7.949 13.5579 7.87869 13.8866 7.95214 14.1989C8.0256 14.5111 8.23509 14.774 8.52306 14.9154L12.3958 16.816L9.90527 20.347C9.5642 20.8306 9.67972 21.4991 10.1633 21.8401C10.6468 22.1812 11.3153 22.0657 11.6564 21.5821L14.8707 17.0249C15.0514 16.7687 15.1108 16.446 15.0332 16.1422C14.9556 15.8383 14.7487 15.5837 14.4672 15.4456L10.639 13.5668L14.0901 9.05032L16.0071 11.5092C16.2132 11.7735 16.531 11.9262 16.8662 11.9218L20.7947 11.8701C21.3864 11.8623 21.8598 11.3764 21.852 10.7847C21.8442 10.193 21.3583 9.71964 20.7666 9.72742L17.3699 9.77209L15.197 6.98502C15.076 6.8298 14.9146 6.71092 14.7305 6.64141L10.0876 4.88865ZM3.75434 21.6415L8.04007 16.3832L6.37903 15.0294L2.0933 20.2877C1.71946 20.7463 1.78823 21.4212 2.24691 21.7951C2.7056 22.1689 3.38049 22.1002 3.75434 21.6415Z" fill="url(#paint0_linear_235_244)"/>
<defs>
<linearGradient id="paint0_linear_235_244" x1="12.4952" y1="2.03476" x2="12.4952" y2="22.0361" gradientUnits="userSpaceOnUse">
<stop offset="0.182213" stop-color="white"/>
<stop offset="1" stop-color="#CDCDCD"/>
</linearGradient>
</defs>
</svg>
