<svg width="22" height="25" viewBox="0 0 22 25" fill="none" xmlns="http://www.w3.org/2000/svg">
<path fill-rule="evenodd" clip-rule="evenodd" d="M12.8981 4.10331C12.8981 5.26494 11.9387 6.20663 10.7552 6.20663C9.57172 6.20663 8.61233 5.26494 8.61233 4.10331C8.61233 2.94169 9.57172 2 10.7552 2C11.9387 2 12.8981 2.94169 12.8981 4.10331ZM17.4947 5.02982C17.5108 4.54684 17.1323 4.14226 16.6493 4.12616C16.1664 4.11006 15.7618 4.48854 15.7457 4.97152L15.5377 11.2109L13.561 10.5877L11.2689 7.37874C11.0214 7.03226 10.592 6.86549 10.1756 6.95409C9.75907 7.04269 9.43476 7.3698 9.34975 7.78702L8.12957 13.775C8.06371 14.0982 8.15062 14.4338 8.36514 14.6844L9.86894 16.4413L10.3355 21.1071C10.3943 21.6952 10.9187 22.1242 11.5067 22.0654C12.0947 22.0066 12.5237 21.4822 12.4649 20.8942L11.9649 15.8942C11.9431 15.6767 11.8553 15.471 11.7131 15.3049L10.3309 13.69L10.956 10.6224L12.0275 12.1226C12.1624 12.3115 12.3551 12.4514 12.5765 12.5212L15.7485 13.5212C16.1548 13.6493 16.5805 13.5224 16.853 13.2305C17.081 13.0794 17.2349 12.824 17.2447 12.5298L17.4947 5.02982ZM17.095 16.0182L17.1125 15.1433L15.3628 15.1084L15.3454 15.9832L15.2454 20.9832C15.2357 21.4663 15.6196 21.8658 16.1027 21.8755C16.5859 21.8852 16.9854 21.5013 16.995 21.0182L17.095 16.0182ZM7.12243 7.45442C7.70025 7.57824 8.0683 8.14704 7.94448 8.72487L7.19448 12.2249C7.07066 12.8027 6.50186 13.1707 5.92403 13.0469C5.3462 12.9231 4.97816 12.3543 5.10198 11.7765L5.85198 8.27647C5.9758 7.69865 6.5446 7.3306 7.12243 7.45442ZM7.99923 18.0315L8.53011 17.1025L6.67207 16.0408L6.1412 16.9698L4.14117 20.4698C3.84797 20.9829 4.02623 21.6365 4.53931 21.9297C5.05239 22.2229 5.70601 22.0446 5.9992 21.5315L7.99923 18.0315Z" fill="url(#paint0_linear_235_243)"/>
<defs>
<linearGradient id="paint0_linear_235_243" x1="10.7476" y1="2" x2="10.7476" y2="22.0709" gradientUnits="userSpaceOnUse">
<stop offset="0.182213" stop-color="white"/>
<stop offset="1" stop-color="#CDCDCD"/>
</linearGradient>
</defs>
</svg>
