<svg width="24" height="24" viewBox="0 0 24 24" fill="none" xmlns="http://www.w3.org/2000/svg">
<path fill-rule="evenodd" clip-rule="evenodd" d="M13.3279 4.10264C13.3279 5.26427 12.3685 6.20596 11.185 6.20596C10.0015 6.20596 9.04213 5.26427 9.04213 4.10264C9.04213 2.94101 10.0015 1.99933 11.185 1.99933C12.3685 1.99933 13.3279 2.94101 13.3279 4.10264ZM17.9245 5.02915C17.9406 4.54617 17.5621 4.14159 17.0791 4.12549C16.5962 4.10939 16.1916 4.48787 16.1755 4.97085L15.9675 11.2102L13.9908 10.587L11.6987 7.37807C11.4512 7.03159 11.0218 6.86482 10.6054 6.95342C10.1889 7.04202 9.86457 7.36913 9.77955 7.78635L8.55938 13.7743C8.49351 14.0975 8.58043 14.4331 8.79494 14.6837L10.2987 16.4406L10.7653 21.1065C10.8241 21.6945 11.3485 22.1235 11.9365 22.0647C12.5245 22.0059 12.9535 21.4815 12.8947 20.8935L12.3947 15.8935C12.373 15.676 12.2851 15.4703 12.1429 15.3042L10.7607 13.6893L11.3858 10.6217L12.4573 12.1219C12.5922 12.3108 12.7849 12.4507 13.0063 12.5205L16.1783 13.5205C16.5846 13.6486 17.0103 13.5217 17.2828 13.2298C17.5108 13.0787 17.6647 12.8233 17.6745 12.5292L17.9245 5.02915ZM17.5248 16.0175L17.5423 15.1427L15.7927 15.1077L15.7752 15.9825L15.6752 20.9825C15.6655 21.4657 16.0494 21.8652 16.5325 21.8748C17.0157 21.8845 17.4152 21.5006 17.4248 21.0175L17.5248 16.0175ZM7.55223 7.45375C8.13005 7.57757 8.4981 8.14637 8.37428 8.7242L7.62428 12.2242C7.50046 12.802 6.93166 13.1701 6.35383 13.0462C5.77601 12.9224 5.40796 12.3536 5.53178 11.7758L6.28178 8.2758C6.4056 7.69798 6.9744 7.32993 7.55223 7.45375ZM8.42903 18.0309L8.95991 17.1019L7.10187 16.0401L6.571 16.9691L4.57097 20.4691C4.27777 20.9822 4.45603 21.6358 4.96911 21.929C5.48219 22.2222 6.13581 22.044 6.429 21.5309L8.42903 18.0309Z" fill="url(#paint0_linear_96_735)"/>
<defs>
<linearGradient id="paint0_linear_96_735" x1="12.1059" y1="1.99933" x2="12.1059" y2="22.0702" gradientUnits="userSpaceOnUse">
<stop offset="0.179999" stop-color="white"/>
<stop offset="1" stop-color="white" stop-opacity="0.4"/>
</linearGradient>
</defs>
</svg>
