<svg width="26" height="25" viewBox="0 0 26 25" fill="none" xmlns="http://www.w3.org/2000/svg">
<path fill-rule="evenodd" clip-rule="evenodd" d="M8.9817 6.03543C9.60861 6.03543 10.1168 6.54364 10.1168 7.17056V11.0354H15.6303V7.17056C15.6303 6.54364 16.1386 6.03543 16.7655 6.03543C17.3924 6.03543 17.9006 6.54364 17.9006 7.17056V11.0354H19.5222V8.46786C19.5222 7.84094 20.0305 7.33272 20.6574 7.33272C21.2843 7.33272 21.7925 7.84094 21.7925 8.46786V11.0354H23.252C23.8042 11.0354 24.252 11.4831 24.252 12.0354C24.252 12.5877 23.8042 13.0354 23.252 13.0354H21.7925H19.5222H17.9006H15.6303H10.1168H7.84656H6.22494H3.95467H2.49521C1.94292 13.0354 1.49521 12.5877 1.49521 12.0354C1.49521 11.4831 1.94292 11.0354 2.49521 11.0354H3.95467V8.46786C3.95467 7.84094 4.46289 7.33272 5.0898 7.33272C5.71672 7.33272 6.22494 7.84094 6.22494 8.46786V11.0354H7.84656V7.17056C7.84656 6.54364 8.35478 6.03543 8.9817 6.03543ZM7.84656 14.7854H10.1168V16.9003C10.1168 17.5272 9.60861 18.0354 8.9817 18.0354C8.35478 18.0354 7.84656 17.5272 7.84656 16.9003V14.7854ZM6.22494 15.603V14.7854H3.95467V15.603C3.95467 16.2299 4.46289 16.7381 5.0898 16.7381C5.71672 16.7381 6.22494 16.2299 6.22494 15.603ZM17.9006 16.9003V14.7854H15.6303V16.9003C15.6303 17.5272 16.1386 18.0354 16.7655 18.0354C17.3924 18.0354 17.9006 17.5272 17.9006 16.9003ZM19.5222 15.603V14.7854H21.7925V15.603C21.7925 16.2299 21.2843 16.7381 20.6574 16.7381C20.0305 16.7381 19.5222 16.2299 19.5222 15.603Z" fill="url(#paint0_linear_235_245)"/>
<defs>
<linearGradient id="paint0_linear_235_245" x1="12.8736" y1="6.03543" x2="12.8736" y2="18.0354" gradientUnits="userSpaceOnUse">
<stop offset="0.182213" stop-color="white"/>
<stop offset="1" stop-color="#CDCDCD"/>
</linearGradient>
</defs>
</svg>
