<svg width="24" height="24" viewBox="0 0 24 24" fill="none" xmlns="http://www.w3.org/2000/svg">
<path fill-rule="evenodd" clip-rule="evenodd" d="M1.25195 9.18683C1.25195 7.51539 2.60692 6.16043 4.27835 6.16043H15.9756C17.647 6.16043 19.002 7.51539 19.002 9.18683V14.884C19.002 16.5555 17.647 17.9104 15.9756 17.9104H4.27835C2.60692 17.9104 1.25195 16.5555 1.25195 14.884V9.18683ZM4.27835 7.91043C3.57342 7.91043 3.00195 8.48189 3.00195 9.18683V14.884C3.00195 15.589 3.57342 16.1604 4.27835 16.1604H15.9756C16.6805 16.1604 17.252 15.589 17.252 14.884V9.18683C17.252 8.48189 16.6805 7.91043 15.9756 7.91043H4.27835ZM20.5464 10.4321C20.5464 10.1351 20.7872 9.89429 21.0843 9.89429H22.002C22.299 9.89429 22.5398 10.1351 22.5398 10.4321V13.645C22.5398 13.942 22.299 14.1828 22.002 14.1828H21.0843C20.7872 14.1828 20.5464 13.942 20.5464 13.645V10.4321ZM4.64588 9.03874C4.36974 9.03874 4.14588 9.2626 4.14588 9.53874V14.5387C4.14588 14.8149 4.36974 15.0387 4.64588 15.0387H12.6459C12.922 15.0387 13.1459 14.8149 13.1459 14.5387V9.53874C13.1459 9.2626 12.922 9.03874 12.6459 9.03874H4.64588Z" fill="url(#paint0_linear_235_246)"/>
<defs>
<linearGradient id="paint0_linear_235_246" x1="11.8959" y1="6.16043" x2="11.8959" y2="17.9104" gradientUnits="userSpaceOnUse">
<stop offset="0.182213" stop-color="white"/>
<stop offset="1" stop-color="#CDCDCD"/>
</linearGradient>
</defs>
</svg>
