<svg width="24" height="25" viewBox="0 0 24 25" fill="none" xmlns="http://www.w3.org/2000/svg">
<path fill-rule="evenodd" clip-rule="evenodd" d="M16.9998 6.24138C18.1833 6.24138 19.1427 5.2997 19.1427 4.13807C19.1427 2.97644 18.1833 2.03476 16.9998 2.03476C15.8164 2.03476 14.857 2.97644 14.857 4.13807C14.857 5.2997 15.8164 6.24138 16.9998 6.24138ZM10.2352 4.88865C9.82046 4.73206 9.35208 4.84711 9.05705 5.17806L6.55704 7.98248C6.16328 8.42419 6.20215 9.10147 6.64386 9.49523C7.08556 9.88899 7.76284 9.85012 8.1566 9.40841L10.1669 7.15333L12.3583 7.9806L8.2914 13.303C8.09664 13.5579 8.02633 13.8866 8.09978 14.1989C8.17324 14.5111 8.38274 14.774 8.6707 14.9154L12.5434 16.816L10.0529 20.347C9.71185 20.8306 9.82736 21.4991 10.3109 21.8401C10.7945 22.1812 11.463 22.0657 11.804 21.5821L15.0183 17.0249C15.1991 16.7687 15.2585 16.446 15.1809 16.1422C15.1032 15.8383 14.8964 15.5837 14.6148 15.4456L10.7867 13.5668L14.1542 9.15961L16.0787 12.3978C16.3238 12.8103 16.8133 13.0095 17.2768 12.8854L21.2054 11.8338C21.777 11.6807 22.1163 11.0933 21.9633 10.5217C21.8103 9.95009 21.2229 9.61076 20.6512 9.76377L17.5063 10.6056L15.4208 7.09641C15.2967 6.88762 15.1053 6.72719 14.8781 6.64141L10.2352 4.88865ZM3.90199 21.6415L8.18772 16.3832L6.52668 15.0294L2.24095 20.2877C1.8671 20.7463 1.93587 21.4212 2.39456 21.7951C2.85324 22.1689 3.52814 22.1002 3.90199 21.6415Z" fill="url(#paint0_linear_235_242)"/>
<defs>
<linearGradient id="paint0_linear_235_242" x1="12" y1="2.03476" x2="12" y2="22.0361" gradientUnits="userSpaceOnUse">
<stop offset="0.182213" stop-color="white"/>
<stop offset="1" stop-color="#CDCDCD"/>
</linearGradient>
</defs>
</svg>
