<svg xmlns="http://www.w3.org/2000/svg" width="25" height="24" fill="none"><g clip-path="url(#a)"><path fill="url(#b)" fill-rule="evenodd" d="M18.135 5.322c1.364 0 2.47-1.085 2.47-2.424S19.499.474 18.135.474s-2.47 1.085-2.47 2.424 1.106 2.424 2.47 2.424ZM10.34 3.763a1.235 1.235 0 0 0-1.358.334L6.1 7.329a1.235 1.235 0 1 0 1.843 1.643l2.317-2.599 2.526.954-4.687 6.134a1.235 1.235 0 0 0 .437 1.858l4.463 2.19-2.87 4.07a1.235 1.235 0 1 0 2.018 1.424l3.704-5.252a1.235 1.235 0 0 0-.465-1.82l-4.411-2.166 3.88-5.08 2.219 3.733c.282.475.846.705 1.38.562l4.528-1.212a1.235 1.235 0 0 0-.638-2.386l-3.625.97-2.404-4.044a1.235 1.235 0 0 0-.625-.525l-5.351-2.02Zm-7.3 19.308 4.94-6.06-1.914-1.56-4.94 6.06a1.235 1.235 0 1 0 1.915 1.56Z" clip-rule="evenodd"/></g><defs><linearGradient id="b" x1="12.373" x2="12.373" y1=".474" y2="23.526" gradientUnits="userSpaceOnUse"><stop offset=".18" stop-color="#fff"/><stop offset="1" stop-color="#fff" stop-opacity=".4"/></linearGradient><clipPath id="a"><path fill="#fff" d="M.373 0h24v24h-24z"/></clipPath></defs></svg>